HIERARCHY
ROOT Hips
{
	OFFSET 0.00000 0.00000 0.00000
	CHANNELS 6 Xposition Yposition Zposition Zrotation Yrotation Xrotation 
	JOINT LHipJoint
	{
		OFFSET 0 0 0
		CHANNELS 3 Zrotation Yrotation Xrotation
		JOINT LeftHip
		{
			OFFSET 1.59715 -1.91394 0.36268
			CHANNELS 3 Zrotation Yrotation Xrotation
			JOINT LeftKnee
			{
				OFFSET 2.53886 -6.97546 0.00000
				CHANNELS 3 Zrotation Yrotation Xrotation
				JOINT LeftAnkle
				{
					OFFSET 2.77084 -7.61284 0.00000
					CHANNELS 3 Zrotation Yrotation Xrotation
					JOINT LeftToe
					{
						OFFSET 0.19855 -0.54550 2.06057
						CHANNELS 3 Zrotation Yrotation Xrotation
						End Site
						{
							OFFSET 0.00000 -0.00000 1.07182
						}
					}
				}
			}
		}
	}
	JOINT RHipJoint
	{
		OFFSET 0 0 0
		CHANNELS 3 Zrotation Yrotation Xrotation
		JOINT RightHip
		{
			OFFSET -1.71086 -1.91394 0.36268
			CHANNELS 3 Zrotation Yrotation Xrotation
			JOINT RightKnee
			{
				OFFSET -2.59448 -7.12828 0.00000
				CHANNELS 3 Zrotation Yrotation Xrotation
				JOINT RightAnkle
				{
					OFFSET -2.80237 -7.69945 0.00000
					CHANNELS 3 Zrotation Yrotation Xrotation
					JOINT RightToe
					{
						OFFSET -0.18280 -0.50224 2.06614
						CHANNELS 3 Zrotation Yrotation Xrotation
						End Site
						{
							OFFSET -0.00000 -0.00000 1.07055
						}
					}
				}
			}
		}
	}
	JOINT lowerback
	{
		OFFSET 0 0 0
		CHANNELS 3 Zrotation Yrotation Xrotation
		JOINT Chest
		{
			OFFSET 0.04838 1.91536 -0.09733
			CHANNELS 3 Zrotation Yrotation Xrotation
			JOINT Chest2
			{
				OFFSET 0.04097 1.92183 -0.02751
				CHANNELS 3 Zrotation Yrotation Xrotation
				JOINT lowerneck
				{
					OFFSET 0 0 0
					CHANNELS 3 Zrotation Yrotation Xrotation
					JOINT Neck
					{
						OFFSET 0.18766 3.12816 0.13727
						CHANNELS 3 Zrotation Yrotation Xrotation
						JOINT Head
						{
							OFFSET -0.11178 3.16074 0.02732
							CHANNELS 3 Zrotation Yrotation Xrotation
							End Site
							{
								OFFSET 0.47685 1.04189 0.57898
							}
						}
					}
				}
				JOINT LeftCollar
				{
					OFFSET 0 0 0
					CHANNELS 3 Zrotation Yrotation Xrotation
					JOINT LeftShoulder
					{
						OFFSET 3.49325 0.99827 -0.10681
CHANNELS 3 Zrotation Xrotation Yrotation
						JOINT LeftElbow
						{
OFFSET 0 -5.128420 0.000000
CHANNELS 3 Zrotation Xrotation Yrotation
							JOINT LeftWrist
							{
OFFSET 0 -3.473960 0.000000
CHANNELS 3 Zrotation Xrotation Yrotation
								JOINT lhand
								{
									OFFSET 0 0 0
CHANNELS 3 Zrotation Xrotation Yrotation
									JOINT LFingers
									{
OFFSET 0 -0.728610 0.000000
CHANNELS 3 Zrotation Xrotation Yrotation
										End Site
										{
OFFSET 0 -0.587420 0.000000
										}
									}
								}
								JOINT LThumb
								{
OFFSET 0 0.000000 0.000000
CHANNELS 3 Zrotation Xrotation Yrotation
									End Site
									{
OFFSET 0 -0.596390 0.596390
									}
								}
							}
						}
					}
				}
				JOINT RightCollar
				{
					OFFSET 0 0 0
					CHANNELS 3 Zrotation Yrotation Xrotation
					JOINT RightShoulder
					{
						OFFSET -3.23261 1.50670 -0.18692
CHANNELS 3 Zrotation Xrotation Yrotation
						JOINT RightElbow
						{
OFFSET 0 -5.484770 -0.000000
CHANNELS 3 Zrotation Xrotation Yrotation
							JOINT RightWrist
							{
OFFSET 0 -3.478560 0.000000
CHANNELS 3 Zrotation Xrotation Yrotation
								JOINT rhand
								{
									OFFSET 0 0 0
CHANNELS 3 Zrotation Xrotation Yrotation
									JOINT RFingers
									{
OFFSET 0 -0.709970 0.000000
CHANNELS 3 Zrotation Xrotation Yrotation
										End Site
										{
OFFSET 0 -0.572400 0.000000
										}
									}
								}
								JOINT RThumb
								{
OFFSET 0 0.000000 0.000000
CHANNELS 3 Zrotation Xrotation Yrotation
									End Site
									{
OFFSET 0 -0.581140 0.581140
									}
								}
							}
						}
					}
				}
			}
		}
	}
}
MOTION
Frames: 11
Frame Time: 0.008333333333333333
-10.457200 17.969200 -13.888500 -2.226800 1.715300 5.135500 0.000000 0.000000 0.000000 -20.294500 -13.743400 -11.003000 2.451100 9.748400 28.165800 0.914200 2.869800 -19.315000 0.190800 2.813100 7.758800 0.000000 0.000000 0.000000 27.408700 14.034500 -12.558300 -3.250000 -11.089200 32.581200 -0.811100 -8.801700 -22.387100 -2.159900 -9.191500 26.396300 2.675700 -1.124400 0.315700 3.461700 -1.424600 -1.302100 2.076800 -0.721800 -1.490700 -4.056700 -2.572100 -17.140300 -4.997300 -1.029400 25.805800 -1.293900 -1.505000 11.248000 -0.000000 0.000000 0.000000 -3.736600 3.300400 -7.165100 16.121600 -25.685200 3.698500 12.635700 18.758300 -29.080100 0.000000 0.000000 0.000000 -7.125000 0.000000 0.000000 -20.483500 58.467500 6.932900 -0.000000 0.000000 0.000000 -2.427400 -2.337000 9.687200 -12.236500 -20.158300 -2.183100 -26.103600 -7.755600 -14.455800 0.000000 0.000000 0.000000 7.125000 0.000000 -0.000000 0.947900 13.963800 0.691200
-10.458089 17.969674 -13.913498 -2.216310 1.757324 4.945384 0.000000 0.000000 0.000000 -20.361257 -13.722821 -10.897412 2.456702 9.758811 28.199101 0.895940 3.023460 -19.217091 0.172777 2.676657 7.379852 0.000000 0.000000 0.000000 27.369195 13.725688 -12.614608 -3.279502 -11.134263 32.734212 -0.807252 -8.463023 -22.070820 -1.993106 -8.851564 25.332308 2.683195 -1.010781 0.417718 3.409691 -1.275212 -1.144439 2.016167 -0.646706 -1.389758 -4.212983 -2.340547 -16.888014 -4.963863 -0.659026 26.147583 -1.204547 -1.353412 11.334174 0.000000 0.000000 0.000000 -3.904840 3.591547 -7.492830 16.555299 -26.267829 3.888479 12.311474 18.245139 -29.485735 0.000000 0.000000 0.000000 -7.125000 0.000000 0.000000 -21.112327 58.772837 7.314424 0.000000 0.000000 0.000000 -2.537458 -2.519453 10.321589 -12.486356 -20.529994 -2.269968 -25.992625 -8.431947 -14.758825 0.000000 0.000000 0.000000 7.125000 0.000000 0.000000 1.047434 13.646428 0.770895
-10.458174 17.970757 -13.949044 -2.374232 1.042062 4.964251 0.000000 0.000000 0.000000 -20.234633 -13.881661 -11.002862 2.483073 9.807095 28.354215 0.870187 3.732325 -19.352781 0.199830 2.878346 7.940167 0.000000 0.000000 0.000000 27.394989 13.613796 -12.850431 -3.277329 -11.130920 32.722789 -0.749346 -7.996912 -21.150176 -1.746010 -8.315760 23.677325 2.697618 -0.743684 0.620029 3.423754 -0.909901 -1.113240 2.019456 -0.464564 -1.476830 -4.070813 -2.290879 -16.479711 -5.245507 -0.577624 26.144983 -1.313129 -1.332978 11.251524 0.000000 0.000000 0.000000 -4.083149 3.801413 -7.237575 16.469093 -26.152640 3.850442 12.437476 18.548524 -29.968178 0.000000 0.000000 0.000000 -7.125000 0.000000 0.000000 -21.342137 59.248109 7.643947 0.000000 0.000000 0.000000 -2.724858 -2.767516 10.356603 -12.456242 -20.485371 -2.259416 -25.863824 -8.158807 -14.975689 0.000000 0.000000 0.000000 7.125000 0.000000 0.000000 1.152017 13.426539 0.853231
-10.452139 17.971480 -13.984709 -2.433057 0.430224 4.871360 0.000000 0.000000 0.000000 -20.226079 -13.815427 -11.042532 2.507205 9.850968 28.495365 0.860332 4.138400 -19.492650 0.220891 3.025306 8.349160 0.000000 0.000000 0.000000 27.388071 13.671355 -12.845777 -3.284514 -11.141921 32.759992 -0.797553 -7.421953 -21.147356 -1.933699 -8.726092 24.942523 2.671928 -0.671317 0.851807 3.352441 -0.809769 -0.966197 1.960005 -0.414374 -1.458108 -4.106643 -2.256545 -16.469728 -5.179349 -0.527906 26.356068 -1.280464 -1.311691 11.330747 0.000000 0.000000 0.000000 -4.118220 3.796594 -6.543278 16.043448 -25.579517 3.664719 12.569121 18.973228 -29.980943 0.000000 0.000000 0.000000 -7.125000 0.000000 0.000000 -21.215126 59.289799 7.617194 0.000000 0.000000 0.000000 -2.780169 -3.126865 10.765211 -12.339396 -20.311615 -2.218711 -26.322710 -8.536609 -15.324425 0.000000 0.000000 0.000000 7.125000 0.000000 0.000000 0.873122 12.981227 0.654805
-10.450178 17.971025 -14.002719 -2.489770 0.088490 4.806721 0.000000 0.000000 0.000000 -20.193142 -13.694699 -11.061273 2.519994 9.874148 28.570122 0.855447 4.312388 -19.548454 0.230738 3.091606 8.533899 0.000000 0.000000 0.000000 27.410279 13.751419 -12.768505 -3.275290 -11.127811 32.712231 -0.776517 -7.305901 -20.857228 -1.829914 -8.502361 24.250725 2.550183 -0.667866 1.031377 3.285762 -0.801565 -0.916364 1.961341 -0.409582 -1.506907 -4.186329 -2.334064 -16.469059 -4.989884 -0.662038 26.546606 -1.221262 -1.361960 11.402509 0.000000 0.000000 0.000000 -4.040196 4.167562 -6.075051 15.842470 -25.306532 3.578380 12.514831 19.374473 -29.655576 0.000000 0.000000 0.000000 -7.125000 0.000000 0.000000 -21.027289 58.975899 7.386572 0.000000 0.000000 0.000000 -2.712088 -2.855159 11.433614 -12.747329 -20.915896 -2.362349 -26.393174 -9.026544 -14.535051 0.000000 0.000000 0.000000 7.125000 0.000000 0.000000 0.758543 13.838272 0.555152
-10.442881 17.971633 -14.017970 -2.729724 -0.177453 4.773172 0.000000 0.000000 0.000000 -19.970479 -13.598815 -11.139874 2.540995 9.912051 28.692401 0.840093 4.580018 -19.561838 0.186481 2.780902 7.669310 0.000000 0.000000 0.000000 27.628523 13.815421 -12.752783 -3.268325 -11.117237 32.676285 -0.758286 -7.260980 -20.647231 -1.709994 -8.233921 23.426864 2.598451 -0.732024 1.144696 3.331354 -0.882031 -0.876571 1.984530 -0.450182 -1.528586 -4.000043 -2.271606 -16.561152 -5.191835 -0.557567 26.692764 -1.316995 -1.327273 11.475899 0.000000 0.000000 0.000000 -3.994357 4.163207 -5.867063 15.821608 -25.278162 3.569403 12.639369 19.312989 -29.740907 0.000000 0.000000 0.000000 -7.125000 0.000000 0.000000 -20.961482 59.083147 7.416439 0.000000 0.000000 0.000000 -2.715573 -2.693763 11.447617 -12.638104 -20.754708 -2.323521 -26.703701 -9.080449 -14.590594 0.000000 0.000000 0.000000 7.125000 0.000000 0.000000 0.553464 13.734968 0.406155
-10.427052 17.971734 -14.035011 -2.693351 -0.384869 4.840485 0.000000 0.000000 0.000000 -20.048422 -13.680478 -11.223950 2.539153 9.908792 28.681925 0.830247 4.734824 -19.562246 0.198329 2.866742 7.908059 0.000000 0.000000 0.000000 27.480823 13.900499 -12.924829 -3.289145 -11.148988 32.783979 -0.772633 -7.053784 -20.625286 -1.768456 -8.366075 23.831793 2.494130 -0.627853 0.988922 3.270380 -0.762941 -0.651457 1.972534 -0.388253 -1.211079 -4.054449 -2.343675 -17.081898 -5.134224 -0.621610 26.734896 -1.305784 -1.360976 11.596928 0.000000 0.000000 0.000000 -3.968359 3.664150 -5.817509 15.910492 -25.399159 3.607526 12.391609 19.265124 -29.477871 0.000000 0.000000 0.000000 -7.125000 0.000000 0.000000 -21.023873 58.783441 7.287490 0.000000 0.000000 0.000000 -2.596457 -2.789618 10.624489 -12.435303 -20.454266 -2.252133 -26.317411 -8.445661 -14.970751 0.000000 0.000000 0.000000 7.125000 0.000000 0.000000 0.846269 13.370022 0.627737
-10.402248 17.972954 -14.053352 -2.641567 -0.546298 4.727196 0.000000 0.000000 0.000000 -20.229633 -13.576717 -11.193833 2.525976 9.884961 28.604973 0.797030 4.948356 -19.369284 0.156221 2.544436 7.013016 0.000000 0.000000 0.000000 27.296274 13.696479 -13.002791 -3.307876 -11.177469 32.880826 -0.780232 -6.762961 -20.477281 -1.696015 -8.201341 23.327634 2.361448 -0.596956 1.349667 3.286047 -0.704522 -0.709519 2.067155 -0.358916 -1.472309 -4.076666 -2.157868 -16.482239 -4.991605 -0.448905 26.407400 -1.206412 -1.251684 11.351946 0.000000 0.000000 0.000000 -3.950380 3.864175 -6.347587 16.176649 -25.759619 3.722422 12.578446 18.963116 -30.238270 0.000000 0.000000 0.000000 -7.125000 0.000000 0.000000 -21.402114 59.529868 7.812206 0.000000 0.000000 0.000000 -2.523696 -2.492773 9.927758 -12.227337 -20.144701 -2.179967 -26.204538 -7.708075 -14.925481 0.000000 0.000000 0.000000 7.125000 0.000000 0.000000 0.918407 13.435165 0.680005
-10.379467 17.972273 -14.080664 -2.718908 -0.649664 4.699071 0.000000 0.000000 0.000000 -20.183056 -13.325189 -11.269673 2.509987 9.855995 28.511636 0.798658 4.753623 -19.259632 0.159167 2.570777 7.085840 0.000000 0.000000 0.000000 27.261821 13.695448 -13.175999 -3.342825 -11.230338 33.060629 -0.845363 -6.294860 -20.758416 -1.993064 -8.851442 25.331815 2.306580 -0.579434 1.651551 3.279189 -0.667480 -0.734885 2.094047 -0.340573 -1.668114 -3.813950 -1.933770 -16.259040 -5.203105 -0.145088 26.683970 -1.287164 -1.119070 11.413630 0.000000 0.000000 0.000000 -3.830955 3.859171 -6.208030 16.304394 -25.931678 3.778056 12.712578 18.790344 -29.131721 0.000000 0.000000 0.000000 -7.125000 0.000000 0.000000 -20.441156 58.532587 6.950214 0.000000 0.000000 0.000000 -2.432794 -2.144557 10.669269 -12.333460 -20.302864 -2.216633 -26.301407 -8.315833 -14.695800 0.000000 0.000000 0.000000 7.125000 0.000000 0.000000 0.833888 13.673961 0.613184
-10.356551 17.968686 -14.121373 -2.961507 -1.068210 4.729466 0.000000 0.000000 0.000000 -19.909985 -13.305381 -11.817398 2.593485 10.006000 28.996157 0.782692 4.919026 -19.205401 0.146814 2.469478 6.804947 0.000000 0.000000 0.000000 27.382877 13.860919 -13.338759 -3.340466 -11.226790 33.048711 -0.804184 -6.207952 -20.302081 -1.916970 -8.690811 24.832821 2.328987 -0.380379 1.959001 3.461147 -0.386076 -0.693813 2.263002 -0.199567 -1.803211 -2.197842 0.100194 -15.662442 -6.826426 2.740586 26.607243 -1.738219 0.160267 11.344750 0.000000 0.000000 0.000000 -3.878719 3.790377 -6.317225 16.318459 -25.950494 3.784215 12.762306 18.833596 -29.728913 0.000000 0.000000 0.000000 -7.125000 0.000000 0.000000 -20.824925 59.099657 7.373852 0.000000 0.000000 0.000000 -2.537473 -2.326132 10.887172 -12.310517 -20.268734 -2.208659 -26.370332 -8.100170 -14.648418 0.000000 0.000000 0.000000 7.125000 0.000000 0.000000 0.783346 13.716707 0.575347
-10.335832 17.964744 -14.164882 -3.334657 -1.916445 4.612718 0.000000 0.000000 0.000000 -19.621680 -13.139385 -11.879227 2.635119 10.079550 29.234686 0.757576 5.470213 -19.321310 0.123839 2.268387 6.248067 0.000000 0.000000 0.000000 27.704722 14.086362 -13.290494 -3.334521 -11.217813 33.017993 -0.802160 -5.887165 -20.054911 -1.867561 -8.584636 24.504453 2.837555 0.166955 2.027124 3.619884 0.351122 -0.427558 2.115356 0.165452 -1.582517 0.709627 5.026421 -13.192235 -9.588265 9.802109 26.747969 -2.266267 3.388397 11.449346 0.000000 0.000000 0.000000 -3.500243 3.279222 -6.913887 15.979818 -25.493268 3.637244 11.995135 18.499848 -30.096161 0.000000 0.000000 0.000000 -7.125000 0.000000 0.000000 -21.899145 59.265880 7.864712 0.000000 0.000000 0.000000 -2.581447 -2.722275 11.146359 -12.434861 -20.453565 -2.251920 -26.186125 -8.696357 -15.112867 0.000000 0.000000 0.000000 7.125000 0.000000 0.000000 0.946706 13.232306 0.704969
